# xmcd
#
# Track frame offsets:
#	150
#	27630
#	39040
#	57193
#	75924
#	99712
#	129205
#	143659
#	151042
#	167001
#	184555
#
# Disc length: 2949 seconds
#
# Revision: 0
# Processed by: cddbd v1.5.2PL0 Copyright (c) Steve Scherf et al.
# Submitted via: EasyCDDAExtractor 16.0.9.1
#
DISCID=760b830b
DTITLE=Climax Blues Band - Sense of Direction
DYEAR=1974
DGENRE=Blues
TTITLE0=Amerita/Sense of Direction 
TTITLE1=Losi' the humbles
TTITLE2=Shopping bag people
TTITLE3=Nogales
TTITLE4=reaching out
TTITLE5=Right now
TTITLE6=Before you reach the grave
TTITLE7=Milwaukee truckin' blues (chipper's song)
TTITLE8=Amerita/Sense of Direction (single version)
TTITLE9=Reaching out (Alternate version)
TTITLE10=Right now (Extended version)
EXTD=
EXTT0=
EXTT1=
EXTT2=
EXTT3=
EXTT4=
EXTT5=
EXTT6=
EXTT7=
EXTT8=
EXTT9=
EXTT10=
PLAYORDER=
